<svg width="200" height="200" viewBox="0 0 200 200" fill="none" xmlns="http://www.w3.org/2000/svg">
<rect width="200" height="200" rx="50" fill="black"/>
<path d="M90.625 131.25H50V118.75H90.625C94.6172 118.751 98.5328 119.845 101.948 121.913C105.363 123.981 108.147 126.944 109.998 130.481C111.849 134.018 112.697 137.994 112.45 141.978C112.203 145.963 110.871 149.804 108.597 153.085C106.323 156.366 103.194 158.963 99.55 160.593C95.9058 162.223 91.885 162.825 87.9232 162.333C83.9615 161.842 80.2097 160.275 77.0746 157.804C73.9395 155.332 71.5405 152.05 70.1375 148.312L81.8438 143.919C82.4449 145.521 83.4729 146.927 84.8164 147.987C86.16 149.046 87.7678 149.718 89.4657 149.929C91.1636 150.139 92.8868 149.882 94.4487 149.183C96.0105 148.484 97.3515 147.372 98.3261 145.966C99.3008 144.56 99.8721 142.913 99.9781 141.206C100.084 139.498 99.7207 137.794 98.9274 136.278C98.1341 134.762 96.9411 133.492 95.4776 132.606C94.0141 131.72 92.3359 131.251 90.625 131.25ZM56.25 93.75H140.625C144.617 93.7514 148.533 94.8453 151.948 96.9131C155.363 98.9809 158.147 101.944 159.998 105.481C161.849 109.018 162.697 112.994 162.45 116.978C162.203 120.963 160.871 124.804 158.597 128.085C156.323 131.366 153.194 133.963 149.55 135.593C145.906 137.223 141.885 137.825 137.923 137.333C133.961 136.842 130.21 135.275 127.075 132.804C123.939 130.332 121.54 127.05 120.138 123.312L131.844 118.919C132.445 120.521 133.473 121.927 134.816 122.987C136.16 124.046 137.768 124.718 139.466 124.929C141.164 125.139 142.887 124.882 144.449 124.183C146.011 123.484 147.351 122.372 148.326 120.966C149.301 119.559 149.872 117.913 149.978 116.206C150.084 114.498 149.721 112.794 148.927 111.278C148.134 109.762 146.941 108.492 145.478 107.606C144.014 106.72 142.336 106.251 140.625 106.25H56.25C51.2772 106.25 46.5081 104.275 42.9917 100.758C39.4754 97.2419 37.5 92.4728 37.5 87.5C37.5 82.5272 39.4754 77.758 42.9917 74.2417C46.5081 70.7254 51.2772 68.75 56.25 68.75H109.375C111.086 68.7493 112.764 68.2803 114.228 67.394C115.691 66.5077 116.884 65.2378 117.677 63.7219C118.471 62.206 118.834 60.5019 118.728 58.7942C118.622 57.0866 118.051 55.4405 117.076 54.0343C116.101 52.6281 114.761 51.5155 113.199 50.8169C111.637 50.1184 109.914 49.8606 108.216 50.0715C106.518 50.2823 104.91 50.9538 103.566 52.0132C102.223 53.0725 101.195 54.4794 100.594 56.0812L88.8875 51.6937C90.6904 46.8988 94.1186 42.8884 98.5746 40.3613C103.031 37.8342 108.232 36.9507 113.273 37.8647C118.313 38.7786 122.873 41.4321 126.158 45.3628C129.443 49.2935 131.245 54.2523 131.25 59.375C131.25 65.1766 128.945 70.7406 124.843 74.8429C120.741 78.9453 115.177 81.25 109.375 81.25H56.25C54.5924 81.25 53.0027 81.9085 51.8306 83.0806C50.6585 84.2527 50 85.8424 50 87.5C50 89.1576 50.6585 90.7473 51.8306 91.9194C53.0027 93.0915 54.5924 93.75 56.25 93.75Z" fill="white"/>
</svg>
